<mxfile host="app.diagrams.net" modified="2023-01-24T12:20:13.081Z" agent="5.0 (Windows NT 10.0; Win64; x64) AppleWebKit/537.36 (KHTML, like Gecko) Chrome/109.0.0.0 Safari/537.36" etag="7jtATfjF5CuaH2YRowC8" version="20.8.10" type="github">
  <diagram id="C5RBs43oDa-KdzZeNtuy" name="Page-1">
    <mxGraphModel dx="1068" dy="541" grid="1" gridSize="10" guides="1" tooltips="1" connect="1" arrows="1" fold="1" page="1" pageScale="1" pageWidth="827" pageHeight="1169" math="0" shadow="0">
      <root>
        <mxCell id="WIyWlLk6GJQsqaUBKTNV-0" />
        <mxCell id="WIyWlLk6GJQsqaUBKTNV-1" parent="WIyWlLk6GJQsqaUBKTNV-0" />
        <mxCell id="ykeJiz9jM8ZNYjhU8tBw-3" value="" style="edgeStyle=orthogonalEdgeStyle;rounded=0;orthogonalLoop=1;jettySize=auto;html=1;" edge="1" parent="WIyWlLk6GJQsqaUBKTNV-1" source="ykeJiz9jM8ZNYjhU8tBw-0" target="ykeJiz9jM8ZNYjhU8tBw-2">
          <mxGeometry relative="1" as="geometry" />
        </mxCell>
        <mxCell id="ykeJiz9jM8ZNYjhU8tBw-0" value="Start" style="ellipse;whiteSpace=wrap;html=1;" vertex="1" parent="WIyWlLk6GJQsqaUBKTNV-1">
          <mxGeometry x="120" y="70" width="120" height="80" as="geometry" />
        </mxCell>
        <mxCell id="ykeJiz9jM8ZNYjhU8tBw-1" value="End" style="ellipse;whiteSpace=wrap;html=1;" vertex="1" parent="WIyWlLk6GJQsqaUBKTNV-1">
          <mxGeometry x="120" y="600" width="120" height="80" as="geometry" />
        </mxCell>
        <mxCell id="ykeJiz9jM8ZNYjhU8tBw-5" value="" style="edgeStyle=orthogonalEdgeStyle;rounded=0;orthogonalLoop=1;jettySize=auto;html=1;" edge="1" parent="WIyWlLk6GJQsqaUBKTNV-1" source="ykeJiz9jM8ZNYjhU8tBw-2" target="ykeJiz9jM8ZNYjhU8tBw-4">
          <mxGeometry relative="1" as="geometry" />
        </mxCell>
        <mxCell id="ykeJiz9jM8ZNYjhU8tBw-2" value="firstnum =0&lt;br&gt;secondnum = 0&lt;br&gt;sum = 0&lt;br&gt;ave = 0" style="shape=hexagon;perimeter=hexagonPerimeter2;whiteSpace=wrap;html=1;fixedSize=1;" vertex="1" parent="WIyWlLk6GJQsqaUBKTNV-1">
          <mxGeometry x="120" y="180" width="120" height="80" as="geometry" />
        </mxCell>
        <mxCell id="ykeJiz9jM8ZNYjhU8tBw-7" value="" style="edgeStyle=orthogonalEdgeStyle;rounded=0;orthogonalLoop=1;jettySize=auto;html=1;" edge="1" parent="WIyWlLk6GJQsqaUBKTNV-1" source="ykeJiz9jM8ZNYjhU8tBw-4" target="ykeJiz9jM8ZNYjhU8tBw-6">
          <mxGeometry relative="1" as="geometry" />
        </mxCell>
        <mxCell id="ykeJiz9jM8ZNYjhU8tBw-4" value="INPUT&lt;br&gt;get firstnum()&lt;br&gt;get secondnum()" style="shape=parallelogram;perimeter=parallelogramPerimeter;whiteSpace=wrap;html=1;fixedSize=1;" vertex="1" parent="WIyWlLk6GJQsqaUBKTNV-1">
          <mxGeometry x="120" y="280" width="120" height="60" as="geometry" />
        </mxCell>
        <mxCell id="ykeJiz9jM8ZNYjhU8tBw-9" value="" style="edgeStyle=orthogonalEdgeStyle;rounded=0;orthogonalLoop=1;jettySize=auto;html=1;" edge="1" parent="WIyWlLk6GJQsqaUBKTNV-1" source="ykeJiz9jM8ZNYjhU8tBw-6" target="ykeJiz9jM8ZNYjhU8tBw-8">
          <mxGeometry relative="1" as="geometry" />
        </mxCell>
        <mxCell id="ykeJiz9jM8ZNYjhU8tBw-12" value="" style="edgeStyle=orthogonalEdgeStyle;rounded=0;orthogonalLoop=1;jettySize=auto;html=1;" edge="1" parent="WIyWlLk6GJQsqaUBKTNV-1" source="ykeJiz9jM8ZNYjhU8tBw-6" target="ykeJiz9jM8ZNYjhU8tBw-11">
          <mxGeometry relative="1" as="geometry" />
        </mxCell>
        <mxCell id="ykeJiz9jM8ZNYjhU8tBw-6" value="sum = firstnum + secondnum" style="whiteSpace=wrap;html=1;" vertex="1" parent="WIyWlLk6GJQsqaUBKTNV-1">
          <mxGeometry x="120" y="360" width="120" height="60" as="geometry" />
        </mxCell>
        <mxCell id="ykeJiz9jM8ZNYjhU8tBw-10" value="" style="edgeStyle=orthogonalEdgeStyle;rounded=0;orthogonalLoop=1;jettySize=auto;html=1;" edge="1" parent="WIyWlLk6GJQsqaUBKTNV-1" source="ykeJiz9jM8ZNYjhU8tBw-8" target="ykeJiz9jM8ZNYjhU8tBw-1">
          <mxGeometry relative="1" as="geometry" />
        </mxCell>
        <mxCell id="ykeJiz9jM8ZNYjhU8tBw-8" value="" style="shape=parallelogram;perimeter=parallelogramPerimeter;whiteSpace=wrap;html=1;fixedSize=1;" vertex="1" parent="WIyWlLk6GJQsqaUBKTNV-1">
          <mxGeometry x="120" y="510" width="120" height="60" as="geometry" />
        </mxCell>
        <mxCell id="ykeJiz9jM8ZNYjhU8tBw-11" value="ave = sum / 2" style="whiteSpace=wrap;html=1;" vertex="1" parent="WIyWlLk6GJQsqaUBKTNV-1">
          <mxGeometry x="120" y="433" width="120" height="60" as="geometry" />
        </mxCell>
        <mxCell id="ykeJiz9jM8ZNYjhU8tBw-13" value="test flowchart" style="text;html=1;align=center;verticalAlign=middle;resizable=0;points=[];autosize=1;strokeColor=none;fillColor=none;" vertex="1" parent="WIyWlLk6GJQsqaUBKTNV-1">
          <mxGeometry x="35" y="35" width="90" height="30" as="geometry" />
        </mxCell>
      </root>
    </mxGraphModel>
  </diagram>
</mxfile>
